<svg width="289" height="175" viewBox="0 0 289 175" fill="none" xmlns="http://www.w3.org/2000/svg">
<path d="M43.5657 72.9167V87.5V160.417C43.5657 168.483 50.0552 175 58.0876 175H72.6095C80.6419 175 87.1314 168.483 87.1314 160.417V120.221C91.6241 123.229 96.4799 125.69 101.653 127.559V138.542C101.653 142.552 104.921 145.833 108.914 145.833C112.908 145.833 116.175 142.552 116.175 138.542V130.84C118.58 131.113 120.986 131.25 123.436 131.25C125.887 131.25 128.292 131.113 130.697 130.84V138.542C130.697 142.552 133.965 145.833 137.958 145.833C141.952 145.833 145.219 142.552 145.219 138.542V127.513C150.392 125.69 155.248 123.229 159.741 120.176V160.417C159.741 168.483 166.23 175 174.263 175H188.785C196.817 175 203.307 168.483 203.307 160.417V87.5L217.828 102.083V124.642C217.828 128.971 219.099 133.164 221.504 136.764L240.519 165.43C244.512 171.4 251.183 175 258.354 175C268.564 175 277.368 167.754 279.365 157.682L288.577 111.38C289.757 105.456 288.441 99.3034 284.947 94.3815L283.177 91.875V54.6875C283.177 48.6263 278.321 43.75 272.286 43.75C266.25 43.75 261.394 48.6263 261.394 54.6875V61.25L237.388 27.4805C225.089 10.2539 205.303 0 184.201 0H123.436H116.175H87.1314H65.3485C35.261 0 10.8914 24.4727 10.8914 54.6875V79.2969C4.26581 84.6745 0 92.8776 0 102.083V110.104C0 113.75 2.90438 116.667 6.53485 116.667C20.966 116.667 32.6743 104.909 32.6743 90.4167V87.5V72.9167V54.6875C32.6743 43.6133 38.1654 33.8151 46.5155 27.8451C44.6095 32.7669 43.5657 38.1445 43.5657 43.75V72.9167ZM254.133 123.958C254.133 122.024 254.898 120.17 256.26 118.802C257.622 117.435 259.468 116.667 261.394 116.667C263.32 116.667 265.167 117.435 266.528 118.802C267.89 120.17 268.655 122.024 268.655 123.958C268.655 125.892 267.89 127.747 266.528 129.114C265.167 130.482 263.32 131.25 261.394 131.25C259.468 131.25 257.622 130.482 256.26 129.114C254.898 127.747 254.133 125.892 254.133 123.958ZM75.6046 46.7578C73.6986 44.8438 72.6095 42.2005 72.6095 39.4661C72.6095 33.7695 77.193 29.1667 82.8656 29.1667H164.007C169.679 29.1667 174.263 33.7695 174.263 39.4661C174.263 42.2005 173.174 44.8438 171.268 46.7578L160.649 57.4219C150.755 67.3568 137.368 72.9167 123.436 72.9167C109.504 72.9167 96.1168 67.3568 86.2692 57.4674L75.65 46.8034L75.6046 46.7578Z" fill="#991B1B"/>
</svg>
