<svg width="75" height="50" viewBox="0 0 75 50" fill="none" xmlns="http://www.w3.org/2000/svg">
<path d="M51.9957 32.6667V34V40.6667C51.9957 41.4042 52.5909 42 53.3276 42H54.6595C55.3962 42 55.9914 41.4042 55.9914 40.6667V36.9917C56.4034 37.2667 56.8488 37.4917 57.3233 37.6625V38.6667C57.3233 39.0333 57.6229 39.3333 57.9892 39.3333C58.3555 39.3333 58.6552 39.0333 58.6552 38.6667V37.9625C58.8758 37.9875 59.0964 38 59.3211 38C59.5459 38 59.7665 37.9875 59.9871 37.9625V38.6667C59.9871 39.0333 60.2867 39.3333 60.653 39.3333C61.0193 39.3333 61.319 39.0333 61.319 38.6667V37.6583C61.7934 37.4917 62.2388 37.2667 62.6509 36.9875V40.6667C62.6509 41.4042 63.246 42 63.9827 42H65.3146C66.0513 42 66.6465 41.4042 66.6465 40.6667V34L67.9784 35.3333V37.3958C67.9784 37.7917 68.095 38.175 68.3156 38.5042L70.0595 41.125C70.4258 41.6708 71.0376 42 71.6953 42C72.6317 42 73.4392 41.3375 73.6223 40.4167L74.4673 36.1833C74.5755 35.6417 74.4548 35.0792 74.1343 34.6292L73.972 34.4V31C73.972 30.4458 73.5266 30 72.973 30C72.4195 30 71.9741 30.4458 71.9741 31V31.6L69.7723 28.5125C68.6444 26.9375 66.8297 26 64.8943 26H59.3211H58.6552H55.9914H53.9935C51.234 26 48.9989 28.2375 48.9989 31V33.25C48.3912 33.7417 48 34.4917 48 35.3333V36.0667C48 36.4 48.2664 36.6667 48.5994 36.6667C49.9229 36.6667 50.9968 35.5917 50.9968 34.2667V34V32.6667V31C50.9968 29.9875 51.5004 29.0917 52.2662 28.5458C52.0914 28.9958 51.9957 29.4875 51.9957 30V32.6667ZM71.3082 37.3333C71.3082 37.1565 71.3783 36.987 71.5032 36.8619C71.6281 36.7369 71.7975 36.6667 71.9741 36.6667C72.1507 36.6667 72.3201 36.7369 72.445 36.8619C72.5699 36.987 72.6401 37.1565 72.6401 37.3333C72.6401 37.5101 72.5699 37.6797 72.445 37.8047C72.3201 37.9298 72.1507 38 71.9741 38C71.7975 38 71.6281 37.9298 71.5032 37.8047C71.3783 37.6797 71.3082 37.5101 71.3082 37.3333ZM54.9342 30.275C54.7594 30.1 54.6595 29.8583 54.6595 29.6083C54.6595 29.0875 55.0799 28.6667 55.6001 28.6667H63.0421C63.5624 28.6667 63.9827 29.0875 63.9827 29.6083C63.9827 29.8583 63.8829 30.1 63.708 30.275L62.7341 31.25C61.8267 32.1583 60.5989 32.6667 59.3211 32.6667C58.0433 32.6667 56.8155 32.1583 55.9123 31.2542L54.9383 30.2792L54.9342 30.275Z" fill="white"/>
<path d="M4.6875 11.9453V22H1.30078V9.32031H4.47656L4.6875 11.9453ZM4.21875 15.2148H3.28125C3.28125 14.332 3.38672 13.5195 3.59766 12.7773C3.81641 12.0273 4.13281 11.3789 4.54688 10.832C4.96875 10.2773 5.48828 9.84766 6.10547 9.54297C6.72266 9.23828 7.4375 9.08594 8.25 9.08594C8.8125 9.08594 9.32812 9.17188 9.79688 9.34375C10.2656 9.50781 10.668 9.76953 11.0039 10.1289C11.3477 10.4805 11.6133 10.9414 11.8008 11.5117C11.9883 12.0742 12.082 12.75 12.082 13.5391V22H8.70703V13.9141C8.70703 13.3359 8.62891 12.8906 8.47266 12.5781C8.31641 12.2656 8.09375 12.0469 7.80469 11.9219C7.52344 11.7969 7.18359 11.7344 6.78516 11.7344C6.34766 11.7344 5.96484 11.8242 5.63672 12.0039C5.31641 12.1836 5.05078 12.4336 4.83984 12.7539C4.62891 13.0664 4.47266 13.4336 4.37109 13.8555C4.26953 14.2773 4.21875 14.7305 4.21875 15.2148ZM11.7656 14.8281L10.5586 14.9805C10.5586 14.1523 10.6602 13.3828 10.8633 12.6719C11.0742 11.9609 11.3828 11.3359 11.7891 10.7969C12.2031 10.2578 12.7148 9.83984 13.3242 9.54297C13.9336 9.23828 14.6367 9.08594 15.4336 9.08594C16.043 9.08594 16.5977 9.17578 17.0977 9.35547C17.5977 9.52734 18.0234 9.80469 18.375 10.1875C18.7344 10.5625 19.0078 11.0547 19.1953 11.6641C19.3906 12.2734 19.4883 13.0195 19.4883 13.9023V22H16.1016V13.9023C16.1016 13.3164 16.0234 12.8711 15.8672 12.5664C15.7188 12.2539 15.5 12.0391 15.2109 11.9219C14.9297 11.7969 14.5938 11.7344 14.2031 11.7344C13.7969 11.7344 13.4414 11.8164 13.1367 11.9805C12.832 12.1367 12.5781 12.3555 12.375 12.6367C12.1719 12.918 12.0195 13.2461 11.918 13.6211C11.8164 13.9883 11.7656 14.3906 11.7656 14.8281Z" fill="white"/>
<path d="M25.1625 15.7891V15.543C25.1625 14.6133 25.2953 13.7578 25.5609 12.9766C25.8266 12.1875 26.2133 11.5039 26.7211 10.9258C27.2289 10.3477 27.8539 9.89844 28.5961 9.57812C29.3383 9.25 30.1898 9.08594 31.1508 9.08594C32.1117 9.08594 32.9672 9.25 33.7172 9.57812C34.4672 9.89844 35.0961 10.3477 35.6039 10.9258C36.1195 11.5039 36.5102 12.1875 36.7758 12.9766C37.0414 13.7578 37.1742 14.6133 37.1742 15.543V15.7891C37.1742 16.7109 37.0414 17.5664 36.7758 18.3555C36.5102 19.1367 36.1195 19.8203 35.6039 20.4062C35.0961 20.9844 34.4711 21.4336 33.7289 21.7539C32.9867 22.0742 32.1352 22.2344 31.1742 22.2344C30.2133 22.2344 29.3578 22.0742 28.6078 21.7539C27.8656 21.4336 27.2367 20.9844 26.7211 20.4062C26.2133 19.8203 25.8266 19.1367 25.5609 18.3555C25.2953 17.5664 25.1625 16.7109 25.1625 15.7891ZM28.5375 15.543V15.7891C28.5375 16.3203 28.5844 16.8164 28.6781 17.2773C28.7719 17.7383 28.9203 18.1445 29.1234 18.4961C29.3344 18.8398 29.6078 19.1094 29.9438 19.3047C30.2797 19.5 30.6898 19.5977 31.1742 19.5977C31.643 19.5977 32.0453 19.5 32.3813 19.3047C32.7172 19.1094 32.9867 18.8398 33.1898 18.4961C33.393 18.1445 33.5414 17.7383 33.6352 17.2773C33.7367 16.8164 33.7875 16.3203 33.7875 15.7891V15.543C33.7875 15.0273 33.7367 14.543 33.6352 14.0898C33.5414 13.6289 33.3891 13.2227 33.1781 12.8711C32.975 12.5117 32.7055 12.2305 32.3695 12.0273C32.0336 11.8242 31.6273 11.7227 31.1508 11.7227C30.6742 11.7227 30.268 11.8242 29.932 12.0273C29.6039 12.2305 29.3344 12.5117 29.1234 12.8711C28.9203 13.2227 28.7719 13.6289 28.6781 14.0898C28.5844 14.543 28.5375 15.0273 28.5375 15.543ZM42.3094 15.7891V15.543C42.3094 14.6133 42.4422 13.7578 42.7078 12.9766C42.9734 12.1875 43.3602 11.5039 43.868 10.9258C44.3758 10.3477 45.0008 9.89844 45.743 9.57812C46.4852 9.25 47.3367 9.08594 48.2977 9.08594C49.2586 9.08594 50.1141 9.25 50.8641 9.57812C51.6141 9.89844 52.243 10.3477 52.7508 10.9258C53.2664 11.5039 53.657 12.1875 53.9227 12.9766C54.1883 13.7578 54.3211 14.6133 54.3211 15.543V15.7891C54.3211 16.7109 54.1883 17.5664 53.9227 18.3555C53.657 19.1367 53.2664 19.8203 52.7508 20.4062C52.243 20.9844 51.618 21.4336 50.8758 21.7539C50.1336 22.0742 49.282 22.2344 48.3211 22.2344C47.3602 22.2344 46.5047 22.0742 45.7547 21.7539C45.0125 21.4336 44.3836 20.9844 43.868 20.4062C43.3602 19.8203 42.9734 19.1367 42.7078 18.3555C42.4422 17.5664 42.3094 16.7109 42.3094 15.7891ZM45.6844 15.543V15.7891C45.6844 16.3203 45.7313 16.8164 45.825 17.2773C45.9188 17.7383 46.0672 18.1445 46.2703 18.4961C46.4813 18.8398 46.7547 19.1094 47.0906 19.3047C47.4266 19.5 47.8367 19.5977 48.3211 19.5977C48.7898 19.5977 49.1922 19.5 49.5281 19.3047C49.8641 19.1094 50.1336 18.8398 50.3367 18.4961C50.5398 18.1445 50.6883 17.7383 50.782 17.2773C50.8836 16.8164 50.9344 16.3203 50.9344 15.7891V15.543C50.9344 15.0273 50.8836 14.543 50.782 14.0898C50.6883 13.6289 50.5359 13.2227 50.325 12.8711C50.1219 12.5117 49.8523 12.2305 49.5164 12.0273C49.1805 11.8242 48.7742 11.7227 48.2977 11.7227C47.8211 11.7227 47.4148 11.8242 47.0789 12.0273C46.7508 12.2305 46.4813 12.5117 46.2703 12.8711C46.0672 13.2227 45.9188 13.6289 45.825 14.0898C45.7313 14.543 45.6844 15.0273 45.6844 15.543ZM59.4562 15.7891V15.543C59.4562 14.6133 59.5891 13.7578 59.8547 12.9766C60.1203 12.1875 60.507 11.5039 61.0148 10.9258C61.5227 10.3477 62.1477 9.89844 62.8898 9.57812C63.632 9.25 64.4836 9.08594 65.4445 9.08594C66.4055 9.08594 67.2609 9.25 68.0109 9.57812C68.7609 9.89844 69.3898 10.3477 69.8977 10.9258C70.4133 11.5039 70.8039 12.1875 71.0695 12.9766C71.3352 13.7578 71.468 14.6133 71.468 15.543V15.7891C71.468 16.7109 71.3352 17.5664 71.0695 18.3555C70.8039 19.1367 70.4133 19.8203 69.8977 20.4062C69.3898 20.9844 68.7648 21.4336 68.0227 21.7539C67.2805 22.0742 66.4289 22.2344 65.468 22.2344C64.507 22.2344 63.6516 22.0742 62.9016 21.7539C62.1594 21.4336 61.5305 20.9844 61.0148 20.4062C60.507 19.8203 60.1203 19.1367 59.8547 18.3555C59.5891 17.5664 59.4562 16.7109 59.4562 15.7891ZM62.8312 15.543V15.7891C62.8312 16.3203 62.8781 16.8164 62.9719 17.2773C63.0656 17.7383 63.2141 18.1445 63.4172 18.4961C63.6281 18.8398 63.9016 19.1094 64.2375 19.3047C64.5734 19.5 64.9836 19.5977 65.468 19.5977C65.9367 19.5977 66.3391 19.5 66.675 19.3047C67.0109 19.1094 67.2805 18.8398 67.4836 18.4961C67.6867 18.1445 67.8352 17.7383 67.9289 17.2773C68.0305 16.8164 68.0812 16.3203 68.0812 15.7891V15.543C68.0812 15.0273 68.0305 14.543 67.9289 14.0898C67.8352 13.6289 67.6828 13.2227 67.4719 12.8711C67.2687 12.5117 66.9992 12.2305 66.6633 12.0273C66.3273 11.8242 65.9211 11.7227 65.4445 11.7227C64.968 11.7227 64.5617 11.8242 64.2258 12.0273C63.8977 12.2305 63.6281 12.5117 63.4172 12.8711C63.2141 13.2227 63.0656 13.6289 62.9719 14.0898C62.8781 14.543 62.8312 15.0273 62.8312 15.543Z" fill="#991B1B"/>
<path d="M5.625 39.5391L8.4375 29.3203H11.9648L7.6875 42H5.55469L5.625 39.5391ZM3.69141 29.3203L6.51562 39.5508L6.57422 42H4.42969L0.152344 29.3203H3.69141ZM18.2391 29.3203V42H14.8523V29.3203H18.2391ZM14.6414 26.0156C14.6414 25.5234 14.8133 25.1172 15.157 24.7969C15.5008 24.4766 15.9617 24.3164 16.5398 24.3164C17.1102 24.3164 17.5672 24.4766 17.9109 24.7969C18.2625 25.1172 18.4383 25.5234 18.4383 26.0156C18.4383 26.5078 18.2625 26.9141 17.9109 27.2344C17.5672 27.5547 17.1102 27.7148 16.5398 27.7148C15.9617 27.7148 15.5008 27.5547 15.157 27.2344C14.8133 26.9141 14.6414 26.5078 14.6414 26.0156ZM28.0641 42.2344C27.0797 42.2344 26.1969 42.0781 25.4156 41.7656C24.6344 41.4453 23.9703 41.0039 23.4234 40.4414C22.8844 39.8789 22.4703 39.2266 22.1812 38.4844C21.8922 37.7344 21.7477 36.9375 21.7477 36.0938V35.625C21.7477 34.6641 21.8844 33.7852 22.1578 32.9883C22.4312 32.1914 22.8219 31.5 23.3297 30.9141C23.8453 30.3281 24.4703 29.8789 25.2047 29.5664C25.9391 29.2461 26.7672 29.0859 27.6891 29.0859C28.5875 29.0859 29.3844 29.2344 30.0797 29.5312C30.775 29.8281 31.357 30.25 31.8258 30.7969C32.3023 31.3438 32.6617 32 32.9039 32.7656C33.1461 33.5234 33.2672 34.3672 33.2672 35.2969V36.7031H23.1891V34.4531H29.9508V34.1953C29.9508 33.7266 29.8648 33.3086 29.693 32.9414C29.5289 32.5664 29.2789 32.2695 28.943 32.0508C28.607 31.832 28.1773 31.7227 27.6539 31.7227C27.2086 31.7227 26.8258 31.8203 26.5055 32.0156C26.1852 32.2109 25.9234 32.4844 25.7203 32.8359C25.525 33.1875 25.3766 33.6016 25.275 34.0781C25.1812 34.5469 25.1344 35.0625 25.1344 35.625V36.0938C25.1344 36.6016 25.2047 37.0703 25.3453 37.5C25.4937 37.9297 25.7008 38.3008 25.9664 38.6133C26.2398 38.9258 26.568 39.168 26.9508 39.3398C27.3414 39.5117 27.7828 39.5977 28.275 39.5977C28.8844 39.5977 29.4508 39.4805 29.9742 39.2461C30.5055 39.0039 30.9625 38.6406 31.3453 38.1562L32.9859 39.9375C32.7203 40.3203 32.357 40.6875 31.8961 41.0391C31.443 41.3906 30.8961 41.6797 30.2555 41.9062C29.6148 42.125 28.8844 42.2344 28.0641 42.2344ZM43.2445 38.4961C43.2445 38.2539 43.1742 38.0352 43.0336 37.8398C42.893 37.6445 42.6312 37.4648 42.2484 37.3008C41.8734 37.1289 41.3305 36.9727 40.6195 36.832C39.9789 36.6914 39.3812 36.5156 38.8266 36.3047C38.2797 36.0859 37.8031 35.8242 37.3969 35.5195C36.9984 35.2148 36.6859 34.8555 36.4594 34.4414C36.2328 34.0195 36.1195 33.5391 36.1195 33C36.1195 32.4688 36.2328 31.9688 36.4594 31.5C36.6937 31.0312 37.0258 30.6172 37.4555 30.2578C37.893 29.8906 38.4242 29.6055 39.0492 29.4023C39.682 29.1914 40.393 29.0859 41.182 29.0859C42.2836 29.0859 43.2289 29.2617 44.018 29.6133C44.8148 29.9648 45.4242 30.4492 45.8461 31.0664C46.2758 31.6758 46.4906 32.3711 46.4906 33.1523H43.1156C43.1156 32.8242 43.0453 32.5312 42.9047 32.2734C42.7719 32.0078 42.5609 31.8008 42.2719 31.6523C41.9906 31.4961 41.6234 31.418 41.1703 31.418C40.7953 31.418 40.4711 31.4844 40.1977 31.6172C39.9242 31.7422 39.7133 31.9141 39.5648 32.1328C39.4242 32.3438 39.3539 32.5781 39.3539 32.8359C39.3539 33.0312 39.393 33.207 39.4711 33.3633C39.557 33.5117 39.6937 33.6484 39.8812 33.7734C40.0687 33.8984 40.3109 34.0156 40.6078 34.125C40.9125 34.2266 41.2875 34.3203 41.7328 34.4062C42.6469 34.5938 43.4633 34.8398 44.182 35.1445C44.9008 35.4414 45.4711 35.8477 45.893 36.3633C46.3148 36.8711 46.5258 37.5391 46.5258 38.3672C46.5258 38.9297 46.4008 39.4453 46.1508 39.9141C45.9008 40.3828 45.5414 40.793 45.0727 41.1445C44.6039 41.4883 44.0414 41.7578 43.3852 41.9531C42.7367 42.1406 42.0062 42.2344 41.1937 42.2344C40.0141 42.2344 39.0141 42.0234 38.1937 41.6016C37.3812 41.1797 36.7641 40.6445 36.3422 39.9961C35.9281 39.3398 35.7211 38.668 35.7211 37.9805H38.9203C38.9359 38.4414 39.0531 38.8125 39.2719 39.0938C39.4984 39.375 39.7836 39.5781 40.1273 39.7031C40.4789 39.8281 40.8578 39.8906 41.2641 39.8906C41.7016 39.8906 42.0648 39.832 42.3539 39.7148C42.643 39.5898 42.8617 39.4258 43.0102 39.2227C43.1664 39.0117 43.2445 38.7695 43.2445 38.4961Z" fill="white"/>
</svg>
